<svg width="24" height="24" viewBox="0 0 24 24" fill="none" xmlns="http://www.w3.org/2000/svg">
<path d="M18.344 8.71C17.637 8.71 17.065 9.282 17.065 9.988V14.518C17.065 14.8572 17.1997 15.1825 17.4396 15.4224C17.6794 15.6623 18.0047 15.797 18.344 15.797C18.6832 15.797 19.0085 15.6623 19.2483 15.4224C19.4882 15.1825 19.623 14.8572 19.623 14.518V9.988C19.623 9.282 19.051 8.71 18.344 8.71ZM5.65595 8.71C4.94895 8.71 4.37695 9.282 4.37695 9.988V14.518C4.37695 14.8572 4.5117 15.1825 4.75156 15.4224C4.99142 15.6623 5.31674 15.797 5.65595 15.797C5.99517 15.797 6.32048 15.6623 6.56034 15.4224C6.8002 15.1825 6.93495 14.8572 6.93495 14.518V9.988C6.93508 9.82005 6.90209 9.65373 6.83784 9.49855C6.7736 9.34337 6.67938 9.20238 6.56058 9.08367C6.44177 8.96496 6.30071 8.87085 6.14549 8.80673C5.99026 8.74261 5.8239 8.70974 5.65595 8.71ZM14.545 4.901L15.313 3.513C15.3354 3.47349 15.3498 3.4299 15.3552 3.38479C15.3607 3.33967 15.3571 3.29391 15.3448 3.25018C15.3324 3.20645 15.3114 3.16562 15.2831 3.13005C15.2549 3.09449 15.2198 3.0649 15.18 3.043C15.1402 3.02061 15.0965 3.00634 15.0512 3.00101C15.0059 2.99568 14.96 2.9994 14.9162 3.01196C14.8724 3.02453 14.8315 3.04567 14.7959 3.07418C14.7603 3.10268 14.7308 3.13797 14.709 3.178L13.92 4.598C13.332 4.363 12.684 4.23 12 4.23C11.316 4.23 10.668 4.362 10.08 4.597L9.29095 3.179C9.26913 3.13897 9.23957 3.10368 9.20399 3.07518C9.16841 3.04667 9.12752 3.02553 9.0837 3.01297C9.03987 3.0004 8.99399 2.99668 8.94871 3.00201C8.90343 3.00734 8.85966 3.02161 8.81995 3.044C8.78032 3.06609 8.74544 3.09578 8.7173 3.13137C8.68916 3.16696 8.66831 3.20776 8.65596 3.25141C8.6436 3.29507 8.63998 3.34074 8.6453 3.3858C8.65062 3.43085 8.66477 3.47442 8.68695 3.514L9.45495 4.902C8.07195 5.69 7.14795 7.099 7.14795 8.71C7.14795 8.721 7.14795 8.731 7.14995 8.744C7.14795 8.75 7.14795 8.757 7.14795 8.763V8.764H16.851V8.71C16.852 7.099 15.928 5.691 14.545 4.901ZM9.75995 6.869C9.71445 6.86867 9.66946 6.85939 9.62754 6.84167C9.58563 6.82395 9.54762 6.79816 9.51567 6.76575C9.45116 6.7003 9.41529 6.6119 9.41595 6.52C9.41662 6.42811 9.45376 6.34024 9.51921 6.27572C9.58466 6.21121 9.67306 6.17534 9.76495 6.176C9.85685 6.17667 9.94472 6.21381 10.0092 6.27926C10.0737 6.34471 10.1096 6.43311 10.109 6.525C10.1083 6.6169 10.0711 6.70477 10.0057 6.76928C9.94025 6.8338 9.85185 6.86967 9.75995 6.869ZM14.24 6.869C14.1527 6.86237 14.0712 6.82303 14.0118 6.75888C13.9523 6.69472 13.9193 6.61048 13.9193 6.523C13.9193 6.43553 13.9523 6.35128 14.0118 6.28713C14.0712 6.22297 14.1527 6.18364 14.24 6.177C14.3317 6.177 14.4197 6.21346 14.4846 6.27834C14.5495 6.34323 14.586 6.43124 14.586 6.523C14.586 6.61477 14.5495 6.70277 14.4846 6.76766C14.4197 6.83255 14.3317 6.869 14.24 6.869ZM7.14795 16.12C7.14795 16.766 7.67295 17.291 8.32195 17.291H8.90795V19.692C8.90795 20.0312 9.04271 20.3565 9.28256 20.5964C9.52242 20.8363 9.84774 20.971 10.187 20.971C10.5262 20.971 10.8515 20.8363 11.0913 20.5964C11.3312 20.3565 11.466 20.0312 11.466 19.692V17.291H12.532V19.692C12.532 20.399 13.104 20.97 13.809 20.97C14.518 20.97 15.09 20.399 15.09 19.692V17.291H15.676C16.324 17.291 16.85 16.767 16.85 16.12V9.028H7.14795V16.12Z" fill="#2B2D33"/>
</svg>
