<svg xmlns="http://www.w3.org/2000/svg" width="24" height="24" viewBox="0 0 24 24"><path fill-rule="evenodd" d="M9.71002 21.957C10.1317 22.0852 10.5877 21.9219 10.832 21.555L18.832 9.555C19.0367 9.24814 19.0559 8.85349 18.8819 8.52823C18.7079 8.20298 18.3689 7.99994 18 8H13.181L13.987 3.165C14.0358 2.87485 13.9538 2.57798 13.763 2.354C13.5733 2.12935 13.2941 1.99983 13 2H7.00002C6.48645 1.99999 6.05637 2.38901 6.00502 2.9L5.00502 12.9C4.97675 13.1812 5.0688 13.4612 5.25839 13.6708C5.44798 13.8804 5.7174 14 6.00002 14H9.00002V21C9.00003 21.4406 9.28838 21.8292 9.71002 21.957ZM7.10502 12L7.90502 4H11.819L11.013 8.835C10.9642 9.12515 11.0462 9.42202 11.237 9.646C11.427 9.871 11.706 10 12 10H16.132L11 17.697V13C11 12.4477 10.5523 12 10 12H7.10502Z" clip-rule="evenodd"/></svg>