<svg xmlns="http://www.w3.org/2000/svg" width="24" height="24" viewBox="0 0 24 24"><path fill-rule="evenodd" d="M5 4C3.89543 4 3 4.89543 3 6V18C3 19.1046 3.89543 20 5 20H9C10.1046 20 11 19.1046 11 18V6C11 4.89543 10.1046 4 9 4H5ZM9 6H5V18H9V6Z" clip-rule="evenodd"/><path fill-rule="evenodd" d="M15 4C13.8954 4 13 4.89543 13 6V14C13 15.1046 13.8954 16 15 16H19C20.1046 16 21 15.1046 21 14V6C21 4.89543 20.1046 4 19 4H15ZM19 6H15V14H19V6Z" clip-rule="evenodd"/><path d="M13 19C13 18.4477 13.4477 18 14 18H20C20.5523 18 21 18.4477 21 19C21 19.5523 20.5523 20 20 20H14C13.4477 20 13 19.5523 13 19Z"/></svg>