<svg xmlns="http://www.w3.org/2000/svg" width="24" height="24" viewBox="0 0 24 24"><path fill-rule="evenodd" d="M12.047 22C17.535 22 22 17.514 22 12S17.514 2 12 2 2 6.486 2 12s4.507 10 10.047 10zM12 4c4.411 0 8 3.589 8 8s-3.567 8-7.953 8C7.609 20 4 16.411 4 12s3.589-8 8-8zm0 3.986A.997.997 0 0013.003 9 .992.992 0 0014 8.005 1 1 0 0012.999 7c-.543.005-.998.454-.999.986zm1.697 8.604a.531.531 0 00.186-.144l.117-.57s-.065.029-.102.043c-.26.104-.528.154-.803.141-.28-.013-.441-.183-.48-.497-.034-.275.008-.542.067-.804.182-.803.37-1.603.559-2.404.082-.35.146-.702.127-1.068-.02-.387-.16-.702-.424-.941-.323-.293-.702-.348-1.093-.346-.593.004-1.136.232-1.669.507-.02.01-.047.028-.052.049a35.78 35.78 0 00-.13.595c.3-.152.59-.21.885-.204.165.004.323.036.42.212a.78.78 0 01.082.533 80.213 80.213 0 01-.44 2.072c-.086.39-.172.78-.256 1.172a2.676 2.676 0 00-.05.874c.075.622.487 1.041 1.068 1.147.693.127 1.353-.037 1.988-.367z" clip-rule="evenodd"/></svg>