<svg width="24" height="24" viewBox="0 0 24 24" fill="none" xmlns="http://www.w3.org/2000/svg">
<path fill-rule="evenodd" clip-rule="evenodd" d="M12.0376 20C16.428 20 20 16.4112 20 12C20 7.5888 16.4112 4 12 4C7.5888 4 4 7.5888 4 12C4 16.4112 7.6056 20 12.0376 20ZM12 7.9862C11.9988 8.55421 12.44 9 13.0034 9C13.5569 9 14 8.55763 14 8.00515C14 7.44695 13.55 6.99522 12.9988 7.00004C12.4559 7.00476 12.0012 7.45375 12 7.9862ZM13.6967 16.5902C13.8322 16.5198 13.883 16.446 13.883 16.446L14 15.8757C14 15.8757 13.9347 15.9048 13.8982 15.9193C13.6379 16.0233 13.3702 16.0734 13.0949 16.0603C12.8151 16.0469 12.6538 15.8768 12.6148 15.5629C12.5807 15.2883 12.6231 15.0209 12.6822 14.759C12.8637 13.9564 13.0515 13.1557 13.2405 12.3554C13.3233 12.0051 13.3874 11.6528 13.368 11.287C13.3476 10.9004 13.2071 10.585 12.9438 10.3456C12.6214 10.0525 12.2417 9.99768 11.8509 10.0001C11.2581 10.0037 10.7146 10.2323 10.1824 10.5071C10.1622 10.5175 10.1348 10.5353 10.1302 10.5556C10.0876 10.7424 10.0449 10.9375 10 11.151C10.2996 10.9986 10.5902 10.9405 10.8854 10.9473C11.0506 10.9512 11.2076 10.9827 11.305 11.1587C11.3948 11.3212 11.4228 11.5057 11.3866 11.6921C11.2519 12.3862 11.0995 13.0752 10.9471 13.7643C10.8608 14.1545 10.7745 14.5447 10.6914 14.9359C10.6302 15.224 10.6068 15.518 10.6417 15.8102C10.7158 16.4317 11.1283 16.8513 11.7085 16.9572C12.402 17.0838 13.0618 16.9203 13.6967 16.5902Z" fill="#2B2D33"/>
</svg>
