<svg xmlns="http://www.w3.org/2000/svg" width="24" height="24" viewBox="0 0 24 24"><path d="M15 16C15.5523 16 16 15.5523 16 15C16 14.4477 15.5523 14 15 14L6 14L6 4L14 4V6C14 6.55228 14.4477 7 15 7C15.5523 7 16 6.55229 16 6V4C16 2.89543 15.1046 2 14 2H6C4.89543 2 4 2.89543 4 4V14C4 15.1046 4.89543 16 6 16L15 16Z"/><path d="M8 9C8 8.44772 8.44772 8 9 8H18C19.1046 8 20 8.89543 20 10V20C20 21.1046 19.1046 22 18 22H10C8.89543 22 8 21.1046 8 20V18C8 17.4477 8.44772 17 9 17C9.55229 17 10 17.4477 10 18V20H18V10H9C8.44772 10 8 9.55228 8 9Z"/><path d="M9 11C8.44772 11 8 11.4477 8 12C8 12.5523 8.44772 13 9 13H15C15.5523 13 16 12.5523 16 12C16 11.4477 15.5523 11 15 11H9Z"/></svg>