<svg xmlns="http://www.w3.org/2000/svg" width="24" height="24" viewBox="0 0 24 24"><path fill-rule="evenodd" d="M12 2C6.477 2 2 6.477 2 12a9.972 9.972 0 003.053 7.193l.131.106a.944.944 0 001.192-.117l4.486-4.49 2.326 2.325-3.262 3.264a.943.943 0 00.522 1.6c.51.079 1.029.119 1.552.119 5.523 0 10-4.477 10-10a9.962 9.962 0 00-2.362-6.455l-.115-.115a.944.944 0 00-1.273.057l-3.82 3.819-2.326-2.325 3.031-3.03a.943.943 0 00-.41-1.575A10.007 10.007 0 0012 2zm0 1.887l.452.012.061.004-2.409 2.412a.943.943 0 000 1.334l3.66 3.66.13.108a.944.944 0 001.204-.109l3.713-3.714.1.154A8.075 8.075 0 0120.114 12l-.006.326a8.115 8.115 0 01-7.138 7.73l-.167.017 2.388-2.388a.943.943 0 000-1.334l-3.66-3.66-.13-.108a.944.944 0 00-1.204.109l-4.46 4.461-.185-.229A8.113 8.113 0 0112 3.886z" clip-rule="evenodd"/></svg>